<?xml version="1.0" standalone="no"?><!DOCTYPE svg PUBLIC "-//W3C//DTD SVG 1.1//EN" "http://www.w3.org/Graphics/SVG/1.1/DTD/svg11.dtd"><svg width="200" height="200" viewBox="0 0 200 200" version="1.1" xmlns="http://www.w3.org/2000/svg" xmlns:xlink="http://www.w3.org/1999/xlink"><defs><style type="text/css"><![CDATA[
@font-face { font-family: ifont; src: url("//at.alicdn.com/t/font_1442373896_4754455.eot?#iefix") format("embedded-opentype"), url("//at.alicdn.com/t/font_1442373896_4754455.woff") format("woff"), url("//at.alicdn.com/t/font_1442373896_4754455.ttf") format("truetype"), url("//at.alicdn.com/t/font_1442373896_4754455.svg#ifont") format("svg"); }

]]></style></defs><g class="transform-group"><g transform="scale(0.1953125, 0.1953125)"><path d="M90.025 919.154 19.903 919.154c-0.311-6.476-0.47-25.977-0.47-32.502 0-82.152 20.951-159.482 60.587-223.63 30.943-50.078 72.589-90.952 122.139-120.27-17.189-18.823-31.236-40.677-41.992-65.384-16.736-38.445-25.223-83.283-25.223-133.267 0-74.946 29.358-144.754 82.665-196.564 52.721-51.241 123.166-79.46 198.359-79.46s145.639 28.22 198.359 79.46c53.308 51.811 82.666 121.619 82.666 196.564 0 49.722-8.879 94.687-26.39 133.646-11.032 24.544-25.296 46.293-42.636 65.062 49.68 29.311 91.556 70.099 122.836 120.03 40.365 64.433 61.701 141.826 61.701 223.813 0 6.525-0.159 26.026-0.47 32.502l-70.123 0c0.379-6.469 0.593-25.968 0.593-32.502 0-68.828-17.643-133.37-51.021-186.65-33.407-53.326-82.321-88.189-139.767-118.838l-39.887-23.044 33.79-32.835c37.896-34.168 81.374-78.364 81.374-181.183 0-55.87-21.824-107.851-61.453-146.367-39.583-38.47-92.701-59.657-149.572-59.657-56.871 0-109.99 21.187-149.572 59.657-39.628 38.516-61.453 90.497-61.453 146.367 0 40.312 6.529 75.749 19.405 105.327 13.267 30.474 34.255 55.31 59.969 77.856l30.79 30.835-36.886 20.044c-54.461 29.521-105.713 68.344-138.653 121.653C106.769 752.9 89.433 817.507 89.433 886.652 89.433 893.186 89.647 912.685 90.025 919.154zM481.681 573.172l0 30.355c0 7.776-5.499 14.137-12.217 14.137l-11.994 0c-6.725 0-11.309 6.274-10.196 13.943l24.271 167.362c1.112 7.666-1.219 19.076-5.185 25.356l-40.419 64.008c-3.96 6.279-10.49 6.31-14.5 0.073l-41.601-64.703c-4.009-6.24-6.352-17.611-5.204-25.272l10.8-72.02c1.15-7.661-1.381-8.996-5.625-2.966l-33.768 47.985c-4.241 6.03-14.992 6.996-18.275 4.067-3.282-2.927-3.296-14.05 0.518-20.452l64.866-96.869c3.812-6.402 4.004-9.912 5.153-17.573l1.349-9.005c1.149-7.661-3.41-13.93-10.125-13.93l-13.809 0c-6.717 0-12.214-6.362-12.214-14.137l0-30.355c0-7.776 5.497-14.138 12.214-14.138l103.746 0C476.182 559.035 481.681 565.397 481.681 573.172L481.681 573.172zM951.398 636.972c-23.316-37.217-66.409-102.857-100.95-128.194 7.662-11.37 14.418-30.54 20.206-43.415 16.77-37.31 25.273-86.017 25.273-132.934 0-72.461-17.411-128.98-68.999-179.118-37.708-36.649-65.767-46.074-117.071-56.26l0 61.566c35.442 9.122 48.82 12.082 75.227 37.747 39.856 38.736 50.805 79.964 50.805 136.065 0 38.375-7.727 80.8-20.997 110.319-8.089 17.997-17.599 39.059-30.238 52.74l-25.242 27.323 32.038 18.902c38.829 22.909 78.959 82.437 103.28 121.26 31.275 49.923 44.859 129.776 45.224 193.655l-0.335 0-5 60.038 58.567 0 6.375-28.577c0.327-6.82 0.437-25.036 0.437-29.319C1000 782.805 989.015 697.018 951.398 636.972z" fill="#272636"></path></g></g></svg>