<?xml version="1.0" standalone="no"?><!DOCTYPE svg PUBLIC "-//W3C//DTD SVG 1.1//EN" "http://www.w3.org/Graphics/SVG/1.1/DTD/svg11.dtd"><svg width="200" height="200" viewBox="0 0 200 200" version="1.1" xmlns="http://www.w3.org/2000/svg" xmlns:xlink="http://www.w3.org/1999/xlink"><defs><style type="text/css"><![CDATA[
@font-face { font-family: ifont; src: url("//at.alicdn.com/t/font_1442373896_4754455.eot?#iefix") format("embedded-opentype"), url("//at.alicdn.com/t/font_1442373896_4754455.woff") format("woff"), url("//at.alicdn.com/t/font_1442373896_4754455.ttf") format("truetype"), url("//at.alicdn.com/t/font_1442373896_4754455.svg#ifont") format("svg"); }

]]></style></defs><g class="transform-group"><g transform="scale(0.1953125, 0.1953125)"><path d="M638.190933 1022.5664l191.488 0c17.578667 0 31.880533-14.301867 31.880533-31.914667L861.559467 543.914667l127.624533 0c12.9024 0 24.541867-7.7824 29.525333-19.694933 4.9152-11.912533 2.1504-25.634133-6.9632-34.747733L533.0944 10.786133c-12.424533-12.458667-32.631467-12.458667-45.090133 0L9.352533 489.437867c-9.147733 9.1136-11.844267 22.8352-6.929067 34.747733 4.949333 11.946667 16.554667 19.694933 29.4912 19.694933l127.624533 0 0 446.7712c0 17.6128 14.301867 31.914667 31.914667 31.914667l191.453867 0c17.6128 0 31.914667-14.301867 31.914667-31.914667l0-223.368533 191.453867 0 0 223.368533C606.3104 1008.264533 620.612267 1022.5664 638.190933 1022.5664zM382.941867 703.419733c-17.646933 0-31.9488 14.336-31.9488 31.9488l0 223.368533L223.368533 958.737067 223.368533 512c0-17.6128-14.267733-31.914667-31.914667-31.914667L108.9536 480.085333 510.5664 78.472533l401.646933 401.6128-82.500267 0c-17.681067 0-31.9488 14.301867-31.9488 31.914667l0 446.737067-127.658667 0 0-223.368533c0-17.6128-14.267733-31.9488-31.914667-31.9488L382.941867 703.419733z" fill="#272636"></path></g></g></svg>