<?xml version="1.0" standalone="no"?><!DOCTYPE svg PUBLIC "-//W3C//DTD SVG 1.1//EN" "http://www.w3.org/Graphics/SVG/1.1/DTD/svg11.dtd"><svg width="200" height="200" viewBox="0 0 200 200" version="1.1" xmlns="http://www.w3.org/2000/svg" xmlns:xlink="http://www.w3.org/1999/xlink"><defs><style type="text/css"><![CDATA[
@font-face { font-family: ifont; src: url("//at.alicdn.com/t/font_1442373896_4754455.eot?#iefix") format("embedded-opentype"), url("//at.alicdn.com/t/font_1442373896_4754455.woff") format("woff"), url("//at.alicdn.com/t/font_1442373896_4754455.ttf") format("truetype"), url("//at.alicdn.com/t/font_1442373896_4754455.svg#ifont") format("svg"); }

]]></style></defs><g class="transform-group"><g transform="scale(0.1953125, 0.1953125)"><path d="M183.466667 219.733333l147.2 0 0 108.8L183.466667 328.533333 183.466667 219.733333zM403.2 219.733333l147.2 0 0 108.8-147.2 0L403.2 219.733333 403.2 219.733333zM183.466667 403.2l147.2 0L330.666667 512 183.466667 512 183.466667 403.2zM403.2 403.2l147.2 0L550.4 512l-147.2 0L403.2 403.2 403.2 403.2zM768 403.2l72.533333 0L840.533333 512 768 512 768 403.2zM768 584.533333l72.533333 0 0 108.8L768 693.333333 768 584.533333zM183.466667 584.533333l147.2 0 0 108.8L183.466667 693.333333 183.466667 584.533333zM403.2 584.533333l147.2 0 0 108.8-147.2 0L403.2 584.533333 403.2 584.533333zM987.733333 915.2 987.733333 256 695.466667 256 695.466667 36.266667 36.266667 36.266667l0 876.8L0 913.066667l0 72.533333 1024 0 0-72.533333L987.733333 913.066667zM108.8 915.2 108.8 108.8l512 0 0 804.266667L108.8 913.066667zM695.466667 915.2 695.466667 328.533333l219.733333 0 0 584.533333L695.466667 913.066667z" fill="#272636"></path></g></g></svg>